HIERARCHY
ROOT root
{
	OFFSET 0.000000 0.000000 0.000000
	CHANNELS 6 Xposition Yposition Zposition Zrotation Yrotation Xrotation
	JOINT lhip
	{
		OFFSET 0.058581 -0.082280 -0.017664
		CHANNELS 3 Zrotation Yrotation Xrotation
		JOINT lknee
		{
			OFFSET 0.043451 -0.386469 0.008037
			CHANNELS 3 Zrotation Yrotation Xrotation
			JOINT lankle
			{
				OFFSET -0.014790 -0.426874 -0.037428
				CHANNELS 3 Zrotation Yrotation Xrotation
				JOINT ltoe
				{
					OFFSET 0.041054 -0.060286 0.122042
					CHANNELS 3 Zrotation Yrotation Xrotation
					End Site
					{
						OFFSET 0.000000 0.000000 0.000000
					}
				}
			}
		}
	}
	JOINT rhip
	{
		OFFSET -0.060310 -0.090513 -0.013543
		CHANNELS 3 Zrotation Yrotation Xrotation
		JOINT rknee
		{
			OFFSET -0.043257 -0.383688 -0.004843
			CHANNELS 3 Zrotation Yrotation Xrotation
			JOINT rankle
			{
				OFFSET 0.019056 -0.420046 -0.034562
				CHANNELS 3 Zrotation Yrotation Xrotation
				JOINT rtoe
				{
					OFFSET -0.034840 -0.062106 0.130323
					CHANNELS 3 Zrotation Yrotation Xrotation
					End Site
					{
						OFFSET 0.000000 0.000000 0.000000
					}
				}
			}
		}
	}
	JOINT lowerback
	{
		OFFSET 0.004439 0.124404 -0.038385
		CHANNELS 3 Zrotation Yrotation Xrotation
		JOINT upperback
		{
			OFFSET 0.004488 0.137956 0.026820
			CHANNELS 3 Zrotation Yrotation Xrotation
			JOINT chest
			{
				OFFSET -0.002265 0.056032 0.002855
				CHANNELS 3 Zrotation Yrotation Xrotation
				JOINT lowerneck
				{
					OFFSET -0.013390 0.211636 -0.033468
					CHANNELS 3 Zrotation Yrotation Xrotation
					JOINT upperneck
					{
						OFFSET 0.010113 0.088937 0.050410
						CHANNELS 3 Zrotation Yrotation Xrotation
						End Site
						{
							OFFSET 0.000000 0.000000 0.000000
						}
					}
				}
				JOINT lclavicle
				{
					OFFSET 0.071702 0.114000 -0.018898
					CHANNELS 3 Zrotation Yrotation Xrotation
					JOINT lshoulder
					{
						OFFSET 0.122921 0.045205 -0.019046
						CHANNELS 3 Zrotation Yrotation Xrotation
						JOINT lelbow
						{
							OFFSET 0.255332 -0.015649 -0.022946
							CHANNELS 3 Zrotation Yrotation Xrotation
							JOINT lwrist
							{
								OFFSET 0.265709 0.012698 -0.007375
								CHANNELS 3 Zrotation Yrotation Xrotation
								End Site
								{
									OFFSET 0.000000 0.000000 0.000000
								}
							}
						}
					}
				}
				JOINT rclavicle
				{
					OFFSET -0.082954 0.112472 -0.023707
					CHANNELS 3 Zrotation Yrotation Xrotation
					JOINT rshoulder
					{
						OFFSET -0.113228 0.046853 -0.008472
						CHANNELS 3 Zrotation Yrotation Xrotation
						JOINT relbow
						{
							OFFSET -0.260127 -0.014369 -0.031269
							CHANNELS 3 Zrotation Yrotation Xrotation
							JOINT rwrist
							{
								OFFSET -0.269108 0.006794 -0.006027
								CHANNELS 3 Zrotation Yrotation Xrotation
								End Site
								{
									OFFSET 0.000000 0.000000 0.000000
								}
							}
						}
					}
				}
			}
		}
	}
}
MOTION
Frames: 8
Frame Time: 0.033333
1.236797 0.646028 0.986485 -96.525560 -0.044160 86.520243 -2.204139 0.473927 3.649965 1.516679 -7.911652 0.336227 2.656022 11.506103 -11.378216 0.000000 -0.000000 0.000000 2.432285 -2.462523 1.971286 -3.923379 1.835921 2.183358 2.100642 -9.581956 -10.857248 0.000000 -0.000000 0.000000 -1.433537 3.738621 8.361993 -0.511093 -1.981736 3.571968 -0.827706 0.241096 -3.043899 2.020547 -1.463118 -10.368944 7.603067 -1.251623 -5.412645 -27.106854 -4.469418 -0.887094 -53.375559 -3.660203 15.305130 -2.207523 -20.361666 5.735163 -7.318572 -2.127895 4.201351 25.214627 6.363267 0.458115 58.877347 -0.812673 18.975807 -1.430194 28.274823 9.824219 3.928438 3.350565 7.047981 
1.236916 0.646046 0.986406 -95.920535 -0.161485 86.617133 -2.313473 0.391825 3.635279 1.576478 -7.899720 0.035685 2.583259 11.141016 -11.225434 0.000000 -0.000000 0.000000 2.282839 -2.452080 1.844627 -3.890573 1.431914 2.340773 2.009264 -9.718120 -10.916912 0.000000 -0.000000 0.000000 -1.568637 3.724922 8.025523 -0.487874 -2.035531 4.164919 -0.861297 0.222560 -3.051611 2.081801 -1.343967 -10.566826 7.558968 -1.475869 -5.563130 -26.901405 -4.560655 -0.764357 -53.607251 -3.798271 15.130510 -2.021867 -20.313986 5.272619 -7.491970 -2.296159 4.163993 25.069833 6.646515 0.530183 59.036721 -0.821156 19.116844 -1.518482 28.020337 10.316079 4.006483 3.567091 7.481628 
1.237041 0.646214 0.986354 -95.428728 -0.244416 86.628541 -2.330330 0.431143 3.647515 1.546106 -8.170316 -0.103284 2.504104 10.946559 -11.124570 0.000000 -0.000000 0.000000 2.182581 -2.518451 1.902436 -3.869436 1.212448 2.277383 1.928876 -9.689862 -10.815876 0.000000 -0.000000 0.000000 -1.505887 3.761412 8.167323 -0.620177 -1.992925 4.198971 -0.911315 0.244507 -3.049518 2.006573 -1.393889 -10.484832 7.589133 -1.511738 -5.637051 -26.900033 -4.566724 -0.663763 -53.609787 -3.758323 14.980448 -1.885444 -20.490923 5.040566 -7.547201 -2.456524 3.836958 25.050925 6.604685 0.576479 59.014415 -0.768646 19.017188 -1.480898 28.581355 10.272690 4.379306 3.427616 7.130478 
1.236630 0.646417 0.986555 -94.388935 -0.268235 86.563515 -2.314510 0.110778 3.697245 1.503477 -8.510209 -0.157038 2.369090 10.619665 -11.082072 0.000000 -0.000000 0.000000 2.196556 -2.729459 2.243267 -3.910251 0.760386 2.044091 1.806133 -9.986849 -10.634923 0.000000 -0.000000 0.000000 -1.598197 3.774100 8.074452 -0.517676 -2.066499 4.801226 -0.843701 0.144150 -3.081389 1.975345 -1.575536 -10.683004 7.567092 -1.828912 -5.993022 -27.029308 -4.720600 -0.522386 -53.549146 -3.917517 14.643779 -1.771781 -20.565155 4.571006 -7.580701 -2.529372 3.907447 25.197566 7.016085 0.615264 58.790610 -0.826660 19.005742 -1.637953 28.498510 10.377457 4.289952 3.661517 7.762505 
1.237267 0.646648 0.986464 -94.211576 -0.352758 86.736338 -2.416850 0.012026 3.401101 1.545285 -8.422355 -0.063295 2.357376 10.547918 -11.057955 0.000000 -0.000000 0.000000 2.153029 -2.638184 1.948721 -3.916794 0.634992 2.227556 1.685010 -10.017372 -10.576123 0.000000 -0.000000 0.000000 -1.599995 3.881060 8.175277 -0.586779 -1.966668 4.655246 -0.880847 0.208132 -2.972049 1.929547 -1.519225 -10.871878 7.597026 -1.991353 -6.169236 -26.941285 -4.778483 -0.578484 -53.614214 -4.001683 14.627725 -1.666320 -20.332344 4.392294 -7.686325 -2.954758 3.890497 25.183462 7.140203 0.677210 58.836686 -0.737345 19.022506 -1.665847 28.455818 10.507935 4.185113 3.899782 7.927273 
1.237138 0.647110 0.986582 -93.548794 -0.300884 86.775046 -2.264741 -0.201793 3.196685 1.418322 -8.739229 0.133821 2.268382 10.439406 -11.056903 0.000000 -0.000000 0.000000 2.286986 -2.849809 2.071537 -3.993700 0.397185 2.058386 1.583331 -10.231061 -10.482680 0.000000 -0.000000 0.000000 -1.488607 3.901544 8.337983 -0.644224 -2.074202 4.602191 -0.872967 0.215747 -2.923889 1.993380 -1.950221 -11.042534 7.566582 -2.232499 -6.324821 -26.994582 -4.809499 -0.438007 -53.503844 -4.016600 14.573572 -1.608845 -20.579110 4.293690 -7.499551 -2.738220 3.507724 25.116098 7.455047 0.790137 58.936488 -0.804952 19.133744 -1.839676 28.606407 10.049749 3.925618 3.613325 7.034174 
1.236928 0.647558 0.986578 -93.129262 -0.357699 86.939686 -2.272502 -0.329786 2.922533 1.384741 -8.950673 0.263758 2.237292 10.292017 -11.035301 0.000000 -0.000000 0.000000 2.248823 -3.079593 1.997663 -4.007351 0.286735 1.913234 1.581644 -10.256656 -10.485433 0.000000 -0.000000 0.000000 -1.544685 4.055063 8.241911 -0.604819 -2.134137 4.790280 -0.918580 0.263825 -2.952154 1.945577 -1.970402 -11.083183 7.693667 -2.394759 -6.588015 -26.958178 -4.809042 -0.603879 -53.504409 -4.009895 14.647059 -1.685615 -20.505298 4.155705 -7.340974 -2.744672 3.783811 25.144377 7.398488 0.711595 58.857417 -0.791678 19.062404 -1.725103 28.772125 10.191049 4.049923 3.555430 7.397770 
1.237364 0.648105 0.986928 -93.064183 -0.381674 87.133234 -2.218031 -0.317065 2.626737 1.293082 -8.842419 0.337243 2.242084 10.121457 -10.949068 0.000000 -0.000000 0.000000 2.219720 -3.204314 1.674767 -3.917535 0.266514 2.065793 1.608256 -10.109475 -10.469528 0.000000 -0.000000 0.000000 -1.515885 4.257801 8.262055 -0.659674 -2.034127 4.858545 -0.950024 0.284870 -3.004412 1.942531 -1.906725 -11.044521 7.759987 -2.451092 -6.697662 -26.892601 -4.896296 -0.627091 -53.422466 -3.951216 14.630732 -1.815337 -20.438856 3.769153 -7.432165 -2.825974 3.457758 25.183016 7.547875 0.807008 58.735404 -0.642143 19.100692 -1.444165 28.635721 10.258904 4.175872 3.493462 7.444764 
